<svg id="svg" version="1.1" xmlns="http://www.w3.org/2000/svg" xmlns:xlink="http://www.w3.org/1999/xlink" width="400" height="182.58426966292134" viewBox="0, 0, 400,182.58426966292134"><g id="svgg"><path id="path0" d="M69.717 118.620 C 68.720 118.976,67.637 119.773,67.207 120.469 C 67.003 120.800,66.760 121.096,66.668 121.129 C 65.819 121.426,65.826 125.593,66.678 126.665 C 69.150 129.775,72.569 130.456,75.404 128.402 C 76.351 127.716,76.356 127.385,75.435 126.485 L 74.706 125.773 73.572 126.382 C 70.883 127.826,68.277 125.942,69.041 123.105 C 69.640 120.882,71.574 120.216,73.692 121.503 L 74.599 122.054 75.378 121.164 C 76.320 120.088,76.332 119.964,75.553 119.370 C 74.308 118.420,71.344 118.039,69.717 118.620 M133.948 118.697 C 128.954 120.550,129.228 127.746,134.348 129.235 C 139.347 130.688,143.650 126.069,141.604 121.445 C 140.503 118.955,136.817 117.632,133.948 118.697 M227.724 118.526 C 223.955 119.742,225.400 125.297,229.486 125.297 C 230.455 125.297,231.408 126.191,230.938 126.661 C 230.260 127.339,228.755 127.178,227.402 126.283 C 226.543 125.715,226.521 125.721,225.676 126.738 C 224.867 127.711,224.887 127.793,226.105 128.528 C 229.595 130.634,233.790 129.316,233.790 126.115 C 233.790 124.123,232.761 123.154,229.896 122.448 C 228.245 122.041,227.811 121.622,228.415 121.018 C 228.838 120.594,229.951 120.668,230.974 121.186 C 232.155 121.786,232.233 121.773,232.876 120.886 C 233.660 119.804,233.599 119.564,232.389 118.972 C 231.276 118.428,228.772 118.188,227.724 118.526 M258.470 119.124 C 256.520 123.674,254.422 128.845,254.426 129.095 C 254.428 129.271,254.765 129.317,255.752 129.277 L 257.074 129.224 257.533 128.079 L 257.991 126.935 260.067 126.984 L 262.142 127.032 262.610 128.174 L 263.078 129.315 264.416 129.315 C 266.053 129.315,266.035 129.462,264.766 126.452 C 264.223 125.164,263.250 122.836,262.604 121.279 L 261.428 118.447 260.117 118.394 L 258.807 118.340 258.470 119.124 M292.968 118.527 C 288.245 119.969,287.622 126.736,292.014 128.893 C 295.978 130.839,300.255 128.451,300.426 124.195 C 300.594 120.017,297.009 117.293,292.968 118.527 M79.817 123.927 L 79.817 129.315 83.927 129.315 L 88.037 129.315 88.037 128.128 L 88.037 126.941 85.297 126.941 L 82.557 126.941 82.557 126.027 L 82.557 125.114 84.932 125.114 L 87.306 125.114 87.306 123.836 L 87.306 122.557 84.932 122.557 L 82.557 122.557 82.557 121.735 L 82.557 120.913 85.297 120.913 L 88.037 120.913 88.037 119.726 L 88.037 118.539 83.927 118.539 L 79.817 118.539 79.817 123.927 M92.055 123.927 L 92.055 129.315 93.333 129.315 L 94.612 129.315 94.612 126.291 C 94.612 123.040,94.650 122.948,95.462 124.262 C 95.721 124.680,96.074 125.146,96.248 125.297 C 96.422 125.447,97.205 126.413,97.990 127.443 L 99.415 129.315 100.575 129.315 L 101.735 129.315 101.735 123.927 L 101.735 118.539 100.457 118.539 L 99.178 118.539 99.164 121.598 C 99.156 123.281,99.103 124.534,99.046 124.384 C 98.918 124.043,96.685 121.136,96.171 120.639 C 95.963 120.438,95.513 119.884,95.171 119.406 L 94.550 118.539 93.302 118.539 L 92.055 118.539 92.055 123.927 M105.388 119.726 L 105.388 120.913 106.941 120.913 L 108.493 120.913 108.493 125.114 L 108.493 129.315 109.863 129.315 L 111.233 129.315 111.233 125.114 L 111.233 120.913 112.785 120.913 L 114.338 120.913 114.338 119.726 L 114.338 118.539 109.863 118.539 L 105.388 118.539 105.388 119.726 M117.808 123.927 L 117.808 129.315 119.178 129.315 L 120.548 129.315 120.548 127.661 L 120.548 126.006 121.314 126.063 C 122.052 126.117,122.118 126.175,123.178 127.717 L 124.276 129.315 125.882 129.315 C 126.766 129.315,127.489 129.247,127.489 129.163 C 127.489 128.976,126.063 126.924,125.755 126.669 C 124.946 125.997,124.911 125.609,125.620 125.211 C 126.616 124.653,127.030 123.704,127.031 121.977 C 127.033 119.211,125.866 118.539,121.063 118.539 L 117.808 118.539 117.808 123.927 M152.362 122.603 L 152.420 126.667 152.927 127.529 C 154.176 129.653,158.230 130.221,160.252 128.555 C 161.608 127.437,161.724 126.984,161.795 122.511 L 161.857 118.539 160.580 118.539 L 159.304 118.539 159.237 121.963 C 159.153 126.308,158.889 126.941,157.157 126.941 C 155.261 126.941,154.888 126.079,154.887 121.689 L 154.886 118.539 153.595 118.539 L 152.304 118.539 152.362 122.603 M166.027 123.927 L 166.027 129.315 167.306 129.315 L 168.584 129.315 168.584 126.185 L 168.584 123.056 168.950 123.520 C 169.151 123.776,169.315 124.057,169.315 124.146 C 169.315 124.236,169.631 124.648,170.018 125.062 C 170.405 125.477,171.321 126.603,172.053 127.566 L 173.386 129.315 174.547 129.315 L 175.708 129.315 175.708 123.927 L 175.708 118.539 174.429 118.539 L 173.151 118.539 173.136 121.598 C 173.128 123.281,173.074 124.534,173.016 124.384 C 172.876 124.020,170.962 121.516,170.294 120.822 C 170.004 120.521,169.487 119.884,169.145 119.406 L 168.523 118.539 167.275 118.539 L 166.027 118.539 166.027 123.927 M180.091 123.927 L 180.091 129.315 181.461 129.315 L 182.831 129.315 182.831 123.927 L 182.831 118.539 181.461 118.539 L 180.091 118.539 180.091 123.927 M186.301 118.676 C 186.300 118.751,186.786 120.046,187.380 121.553 C 187.973 123.059,188.898 125.424,189.435 126.808 L 190.411 129.324 191.754 129.274 L 193.098 129.224 194.101 126.667 C 194.913 124.599,196.799 119.805,197.209 118.767 C 197.277 118.596,196.933 118.539,195.835 118.539 L 194.370 118.539 193.830 119.954 C 193.532 120.733,193.136 121.801,192.949 122.329 C 192.762 122.856,192.550 123.288,192.478 123.288 C 192.406 123.288,192.205 123.797,192.030 124.419 C 191.722 125.517,191.708 125.534,191.542 125.012 C 191.448 124.717,190.879 123.139,190.278 121.507 L 189.185 118.539 187.743 118.539 C 186.950 118.539,186.301 118.600,186.301 118.676 M200.731 123.927 L 200.731 129.315 204.840 129.315 L 208.950 129.315 208.950 128.128 L 208.950 126.941 206.119 126.941 L 203.288 126.941 203.288 126.027 L 203.288 125.114 205.753 125.114 L 208.219 125.114 208.219 123.836 L 208.219 122.557 205.753 122.557 L 203.288 122.557 203.288 121.735 L 203.288 120.913 206.119 120.913 L 208.950 120.913 208.950 119.726 L 208.950 118.539 204.840 118.539 L 200.731 118.539 200.731 123.927 M212.785 123.927 L 212.785 129.315 214.155 129.315 L 215.525 129.315 215.525 127.671 L 215.525 126.027 216.251 126.027 C 216.961 126.027,217.000 126.062,218.082 127.671 L 219.188 129.315 220.644 129.315 C 222.438 129.315,222.438 129.313,220.981 127.225 C 219.814 125.553,219.820 125.597,220.684 125.102 C 221.538 124.613,222.124 122.355,221.754 120.983 C 221.203 118.938,220.287 118.548,216.027 118.543 L 212.785 118.539 212.785 123.927 M237.808 123.927 L 237.808 129.315 239.087 129.315 L 240.365 129.315 240.365 123.927 L 240.365 118.539 239.087 118.539 L 237.808 118.539 237.808 123.927 M243.836 119.726 L 243.836 120.913 245.479 120.913 L 247.123 120.913 247.123 125.114 L 247.123 129.315 248.493 129.315 L 249.863 129.315 249.863 125.114 L 249.863 120.913 251.507 120.913 L 253.151 120.913 253.151 119.726 L 253.151 118.539 248.493 118.539 L 243.836 118.539 243.836 119.726 M269.224 123.916 L 269.224 129.315 270.594 129.315 L 271.963 129.315 271.963 127.671 L 271.963 126.027 272.663 126.027 C 273.223 126.027,273.412 126.119,273.607 126.484 C 273.742 126.735,273.907 126.941,273.974 126.941 C 274.041 126.941,274.458 127.473,274.902 128.124 L 275.708 129.306 277.215 129.311 C 279.042 129.316,279.034 129.372,277.530 127.215 C 276.492 125.726,276.382 125.493,276.676 125.400 C 278.190 124.919,278.911 121.802,277.906 120.085 C 277.147 118.791,276.621 118.639,272.648 118.573 L 269.224 118.517 269.224 123.916 M282.374 123.927 L 282.374 129.315 283.744 129.315 L 285.114 129.315 285.114 123.927 L 285.114 118.539 283.744 118.539 L 282.374 118.539 282.374 123.927 M310.868 123.945 L 310.868 129.351 314.018 129.274 C 319.178 129.148,320.871 127.916,321.060 124.150 C 321.262 120.142,319.183 118.539,313.783 118.539 L 310.868 118.539 310.868 123.945 M324.749 123.927 L 324.749 129.315 328.950 129.315 L 333.151 129.315 333.151 128.128 L 333.151 126.941 330.411 126.941 L 327.671 126.941 327.671 126.027 L 327.671 125.114 330.046 125.114 L 332.420 125.114 332.420 123.836 L 332.420 122.557 330.046 122.557 L 327.671 122.557 327.671 121.735 L 327.671 120.913 330.411 120.913 L 333.151 120.913 333.151 119.726 L 333.151 118.539 328.950 118.539 L 324.749 118.539 324.749 123.927 M137.717 121.255 C 139.370 122.454,139.592 124.736,138.192 126.136 C 136.757 127.572,134.348 127.071,133.670 125.196 C 133.545 124.850,133.377 124.566,133.297 124.566 C 133.216 124.566,133.151 124.237,133.151 123.836 C 133.151 123.434,133.233 123.105,133.333 123.105 C 133.434 123.105,133.516 122.985,133.516 122.837 C 133.516 121.371,136.387 120.289,137.717 121.255 M295.779 121.049 C 298.855 122.152,298.099 126.942,294.844 126.969 C 291.651 126.996,290.673 122.403,293.589 121.079 C 294.521 120.655,294.675 120.653,295.779 121.049 M123.720 121.292 C 124.990 122.291,124.002 123.470,121.893 123.470 L 120.548 123.470 120.548 122.192 L 120.548 120.913 121.893 120.913 C 122.978 120.913,123.332 120.987,123.720 121.292 M218.730 121.362 C 219.820 122.452,218.938 123.470,216.903 123.470 L 215.525 123.470 215.525 122.192 L 215.525 120.913 216.903 120.913 C 218.123 120.913,218.333 120.965,218.730 121.362 M274.969 121.093 C 276.795 121.787,275.579 123.470,273.251 123.470 L 271.963 123.470 271.963 122.192 L 271.963 120.913 273.230 120.913 C 273.927 120.913,274.709 120.994,274.969 121.093 M316.832 121.387 C 319.334 123.255,318.251 126.671,315.085 126.897 L 313.790 126.990 313.790 123.931 L 313.790 120.872 315.063 120.944 C 315.974 120.995,316.476 121.121,316.832 121.387 M260.923 123.881 L 261.171 124.566 260.083 124.566 C 259.238 124.566,258.995 124.505,258.995 124.292 C 258.995 124.142,259.063 124.018,259.144 124.018 C 259.226 124.018,259.485 123.557,259.718 122.993 L 260.143 121.968 260.409 122.582 C 260.555 122.920,260.786 123.505,260.923 123.881 M23.029 137.448 C 18.010 138.854,17.657 146.608,22.537 148.246 C 24.515 148.910,27.000 148.568,28.303 147.453 C 29.208 146.678,29.215 146.495,28.381 145.571 C 27.608 144.716,27.396 144.684,26.594 145.295 C 23.725 147.483,20.198 143.443,22.749 140.892 C 23.961 139.680,26.211 139.641,26.939 140.819 C 27.400 141.566,29.278 139.624,28.851 138.843 C 28.176 137.609,25.092 136.870,23.029 137.448 M69.763 137.406 C 68.624 137.729,67.709 138.327,67.192 139.086 C 66.953 139.437,66.692 139.724,66.611 139.725 C 65.777 139.732,65.379 143.710,66.063 145.205 C 67.596 148.558,72.380 149.748,75.070 147.445 C 75.965 146.679,75.972 146.494,75.139 145.571 C 74.359 144.708,73.993 144.667,73.107 145.342 C 71.244 146.764,68.615 145.347,68.615 142.922 C 68.615 140.343,72.254 138.781,73.514 140.819 C 73.828 141.327,75.778 139.984,75.795 139.248 C 75.823 137.963,71.962 136.784,69.763 137.406 M134.155 137.470 C 128.811 138.921,128.733 147.030,134.050 148.335 C 136.717 148.989,140.639 147.714,140.639 146.193 C 140.639 146.073,140.754 145.931,140.894 145.877 C 141.697 145.569,141.999 141.822,141.324 140.548 C 139.948 137.954,137.014 136.694,134.155 137.470 M149.083 137.441 C 144.001 138.868,143.597 146.538,148.514 148.240 C 150.941 149.079,155.068 148.010,155.068 146.542 C 155.068 145.794,153.286 144.509,152.966 145.025 C 152.230 146.218,149.612 146.118,148.673 144.863 C 148.476 144.599,148.211 144.262,148.084 144.114 C 147.958 143.966,147.854 143.430,147.854 142.922 C 147.854 142.415,147.958 141.879,148.084 141.731 C 148.211 141.582,148.492 141.225,148.708 140.937 C 149.687 139.634,151.320 139.607,153.097 140.863 C 153.439 141.105,154.008 140.693,154.738 139.674 C 155.793 138.202,151.878 136.656,149.083 137.441 M32.877 142.922 L 32.877 148.493 34.247 148.493 L 35.616 148.493 35.616 142.922 L 35.616 137.352 34.247 137.352 L 32.877 137.352 32.877 142.922 M40.000 142.922 L 40.000 148.493 44.201 148.493 L 48.402 148.493 48.402 147.215 L 48.402 145.936 45.479 145.936 L 42.557 145.936 42.557 145.023 L 42.557 144.110 45.114 144.110 L 47.671 144.110 47.671 142.922 L 47.671 141.735 45.114 141.735 L 42.557 141.735 42.557 140.822 L 42.557 139.909 45.388 139.909 L 48.219 139.909 48.219 138.630 L 48.219 137.352 44.110 137.352 L 40.000 137.352 40.000 142.922 M52.237 142.922 L 52.237 148.493 53.512 148.493 L 54.786 148.493 54.836 145.357 L 54.886 142.220 56.166 143.941 C 56.870 144.888,57.684 146.013,57.974 146.441 C 59.151 148.180,59.584 148.493,60.810 148.493 L 61.918 148.493 61.918 142.922 L 61.918 137.352 60.639 137.352 L 59.361 137.352 59.361 140.381 C 59.361 142.116,59.290 143.383,59.195 143.349 C 59.001 143.277,56.266 139.703,55.341 138.311 L 54.703 137.352 53.470 137.352 L 52.237 137.352 52.237 142.922 M79.452 142.922 L 79.452 148.493 80.913 148.493 L 82.374 148.493 82.374 142.922 L 82.374 137.352 80.913 137.352 L 79.452 137.352 79.452 142.922 M89.957 138.013 C 89.805 138.377,89.680 138.744,89.680 138.829 C 89.680 139.042,89.070 140.344,88.915 140.461 C 88.654 140.658,85.662 147.893,85.662 148.326 C 85.662 148.418,86.272 148.493,87.018 148.493 L 88.373 148.493 88.584 147.854 C 88.701 147.502,88.855 147.215,88.927 147.215 C 89.000 147.215,89.163 146.927,89.290 146.575 L 89.521 145.936 91.473 145.938 L 93.425 145.939 93.882 147.171 L 94.340 148.402 95.846 148.455 C 96.738 148.486,97.352 148.435,97.352 148.330 C 97.352 148.118,96.436 145.927,96.233 145.655 C 96.047 145.404,93.896 140.361,93.256 138.676 L 92.753 137.352 91.493 137.352 L 90.233 137.352 89.957 138.013 M102.009 137.623 C 100.772 138.204,100.210 139.139,100.193 140.639 C 100.172 142.606,100.957 143.419,103.470 144.034 C 105.124 144.438,105.753 144.761,105.753 145.204 C 105.753 146.115,103.938 146.198,102.315 145.361 C 101.048 144.708,100.938 144.740,100.145 145.996 C 99.575 146.899,99.634 147.017,101.031 147.765 C 104.257 149.494,108.066 148.413,108.409 145.671 C 108.684 143.469,107.835 142.487,104.937 141.656 C 103.106 141.131,102.633 140.813,102.944 140.316 C 103.276 139.787,104.650 139.806,105.735 140.356 C 106.930 140.961,106.900 140.968,107.561 139.938 C 108.345 138.717,108.302 138.563,107.003 137.914 C 105.708 137.267,103.092 137.115,102.009 137.623 M120.548 137.557 C 117.685 138.698,118.128 142.990,121.195 143.826 C 123.714 144.512,124.394 144.989,123.828 145.671 C 123.369 146.224,120.726 145.755,120.286 145.042 C 120.027 144.623,119.484 144.870,118.750 145.741 C 117.891 146.760,117.856 146.874,118.332 147.126 C 118.519 147.225,119.115 147.547,119.656 147.843 C 122.865 149.594,126.673 148.266,126.884 145.321 C 127.028 143.295,126.448 142.702,123.301 141.664 C 121.493 141.067,121.030 140.702,121.448 140.198 C 121.822 139.748,123.050 139.837,124.153 140.395 L 125.115 140.882 125.853 140.082 C 126.904 138.944,126.808 138.567,125.297 137.892 C 124.024 137.324,121.568 137.150,120.548 137.557 M158.904 142.922 L 158.904 148.493 160.183 148.493 L 161.461 148.493 161.461 142.922 L 161.461 137.352 160.183 137.352 L 158.904 137.352 158.904 142.922 M169.321 137.763 C 169.228 137.989,168.520 139.694,167.748 141.553 C 164.600 149.131,164.720 148.493,166.439 148.493 L 167.764 148.493 168.174 147.436 C 168.400 146.854,168.584 146.279,168.584 146.157 C 168.584 145.996,169.183 145.936,170.776 145.936 C 172.584 145.936,172.968 145.983,172.968 146.205 C 172.968 146.353,173.169 146.928,173.415 147.483 L 173.861 148.493 175.241 148.493 C 176.000 148.493,176.621 148.458,176.621 148.415 C 176.621 148.258,175.189 144.681,174.019 141.918 C 173.360 140.361,172.669 138.697,172.484 138.220 L 172.146 137.353 170.818 137.352 C 169.612 137.352,169.474 137.389,169.321 137.763 M179.909 142.922 L 179.909 148.493 183.927 148.493 L 187.945 148.493 187.945 147.123 L 187.945 145.753 185.297 145.753 L 182.648 145.753 182.648 141.553 L 182.648 137.352 181.279 137.352 L 179.909 137.352 179.909 142.922 M191.416 142.922 L 191.416 148.493 195.616 148.493 L 199.817 148.493 199.817 147.215 L 199.817 145.936 196.986 145.936 L 194.155 145.936 194.155 145.023 L 194.155 144.110 196.530 144.110 L 198.904 144.110 198.904 142.922 L 198.904 141.735 196.530 141.735 L 194.155 141.735 194.155 140.822 L 194.155 139.909 196.895 139.909 L 199.635 139.909 199.635 138.630 L 199.635 137.352 195.525 137.352 L 191.416 137.352 191.416 142.922 M204.932 137.760 C 203.830 138.347,203.380 139.238,203.385 140.822 C 203.391 142.752,204.025 143.350,206.882 144.126 C 208.802 144.648,209.470 145.279,208.596 145.747 C 207.879 146.131,206.586 145.967,205.464 145.350 L 204.397 144.763 203.922 145.210 C 202.608 146.445,202.699 147.040,204.329 147.864 C 206.638 149.033,210.050 148.622,211.094 147.051 C 212.515 144.913,211.199 142.401,208.311 141.735 C 206.898 141.409,206.027 140.989,206.027 140.634 C 206.027 139.759,207.487 139.624,208.947 140.364 C 210.101 140.949,210.034 140.965,210.731 139.937 C 211.521 138.771,211.488 138.595,210.365 137.980 C 208.972 137.216,206.165 137.103,204.932 137.760 M220.826 137.580 C 220.828 137.705,220.991 138.014,221.187 138.265 C 221.384 138.516,221.546 138.821,221.548 138.943 C 221.551 139.065,221.787 139.435,222.074 139.765 C 222.361 140.095,223.142 141.238,223.809 142.305 L 225.023 144.245 225.023 146.369 L 225.023 148.493 226.301 148.493 L 227.580 148.493 227.580 146.372 L 227.580 144.251 228.436 142.877 C 228.907 142.121,229.424 141.370,229.585 141.208 C 230.141 140.647,231.781 137.912,231.781 137.545 C 231.781 137.424,231.205 137.352,230.253 137.352 L 228.724 137.352 228.243 138.078 C 227.979 138.478,227.760 138.868,227.756 138.946 C 227.753 139.023,227.433 139.606,227.047 140.241 L 226.343 141.396 225.709 140.332 C 225.360 139.748,224.844 138.838,224.563 138.311 L 224.052 137.352 222.437 137.352 C 221.264 137.352,220.823 137.414,220.826 137.580 M241.461 142.922 L 241.461 148.493 242.831 148.493 L 244.201 148.493 244.201 146.301 L 244.201 144.110 246.210 144.110 L 248.219 144.110 248.219 146.301 L 248.219 148.493 249.498 148.493 L 250.776 148.493 250.776 142.922 L 250.776 137.352 249.498 137.352 L 248.219 137.352 248.219 139.543 L 248.219 141.735 246.210 141.735 L 244.201 141.735 244.201 139.543 L 244.201 137.352 242.831 137.352 L 241.461 137.352 241.461 142.922 M254.977 140.991 C 254.977 147.248,255.776 148.518,259.726 148.542 C 263.628 148.566,264.475 147.232,264.475 141.063 L 264.475 137.352 263.210 137.352 L 261.946 137.352 261.886 140.868 C 261.812 145.267,261.523 145.936,259.700 145.936 C 257.965 145.936,257.649 145.185,257.571 140.868 L 257.506 137.352 256.242 137.352 L 254.977 137.352 254.977 140.991 M268.676 142.922 L 268.676 148.493 269.950 148.493 L 271.224 148.493 271.274 145.347 L 271.324 142.201 272.511 144.059 C 274.011 146.405,274.024 146.405,275.570 144.082 L 276.804 142.229 276.854 145.361 L 276.904 148.493 278.178 148.493 L 279.452 148.493 279.452 142.922 L 279.452 137.352 278.106 137.352 L 276.761 137.352 276.280 138.078 C 276.015 138.478,275.799 138.857,275.799 138.921 C 275.799 139.216,274.089 141.740,273.977 141.609 C 273.757 141.352,272.329 139.009,272.329 138.905 C 272.329 138.850,272.122 138.478,271.870 138.079 L 271.411 137.352 270.043 137.352 L 268.676 137.352 268.676 142.922 M286.943 138.402 C 286.729 138.979,285.935 140.932,285.178 142.740 C 282.446 149.270,282.567 148.493,284.276 148.493 L 285.630 148.493 286.131 147.215 L 286.633 145.936 288.659 145.937 L 290.685 145.937 291.209 147.215 L 291.733 148.493 293.081 148.493 C 293.823 148.493,294.429 148.421,294.429 148.332 C 294.429 148.056,293.545 145.800,292.024 142.192 C 291.219 140.283,290.432 138.413,290.275 138.037 L 289.990 137.352 288.661 137.352 L 287.332 137.352 286.943 138.402 M297.900 142.914 L 297.900 148.493 299.174 148.493 L 300.448 148.493 300.498 145.377 L 300.548 142.262 302.466 144.754 C 303.521 146.125,304.589 147.525,304.840 147.865 C 305.274 148.452,305.355 148.484,306.438 148.488 L 307.580 148.493 307.580 142.922 L 307.580 137.352 306.301 137.352 L 305.023 137.352 305.017 140.411 L 305.011 143.470 304.634 142.964 C 304.426 142.686,303.956 142.143,303.589 141.758 C 303.222 141.373,302.594 140.587,302.192 140.011 C 300.279 137.269,300.491 137.449,299.124 137.389 L 297.900 137.335 297.900 142.914 M311.963 142.922 L 311.963 148.493 313.333 148.493 L 314.703 148.493 314.703 142.922 L 314.703 137.352 313.333 137.352 L 311.963 137.352 311.963 142.922 M319.087 142.944 L 319.087 148.537 321.963 148.449 C 326.949 148.296,328.832 146.955,329.088 143.379 C 329.381 139.280,326.952 137.352,321.495 137.352 L 319.087 137.352 319.087 142.944 M335.463 138.220 C 334.706 140.168,333.434 143.111,333.310 143.199 C 333.134 143.323,331.142 148.123,331.142 148.423 C 331.142 148.470,331.810 148.484,332.628 148.455 L 334.114 148.402 334.590 147.169 L 335.066 145.936 337.014 145.936 L 338.963 145.936 339.465 147.215 L 339.966 148.493 341.399 148.493 C 342.479 148.493,342.831 148.433,342.831 148.247 C 342.831 147.912,341.054 143.526,340.865 143.393 C 340.782 143.335,340.241 142.137,339.663 140.731 C 339.084 139.324,338.535 137.989,338.442 137.763 C 338.290 137.393,338.147 137.352,337.036 137.352 L 335.799 137.353 335.463 138.220 M346.119 142.944 L 346.119 148.536 349.115 148.464 L 352.112 148.391 353.355 147.757 C 354.179 147.337,354.738 146.908,355.013 146.484 C 355.241 146.132,355.525 145.731,355.643 145.592 C 356.531 144.552,356.557 141.198,355.684 140.274 C 355.542 140.123,355.174 139.671,354.866 139.269 C 353.723 137.778,352.339 137.352,348.637 137.352 L 346.119 137.352 346.119 142.944 M360.000 142.922 L 360.000 148.493 364.201 148.493 L 368.402 148.493 368.402 147.215 L 368.402 145.936 365.571 145.936 L 362.740 145.936 362.740 145.023 L 362.740 144.110 365.205 144.110 L 367.671 144.110 367.671 142.922 L 367.671 141.735 365.205 141.735 L 362.740 141.735 362.740 140.822 L 362.740 139.909 365.571 139.909 L 368.402 139.909 368.402 138.630 L 368.402 137.352 364.201 137.352 L 360.000 137.352 360.000 142.922 M373.607 137.771 C 371.751 138.822,371.492 142.151,373.185 143.196 C 373.518 143.401,374.489 143.782,375.342 144.043 C 377.388 144.666,377.845 145.052,377.247 145.649 C 376.765 146.132,375.399 146.011,374.263 145.385 C 373.003 144.690,372.976 144.693,372.277 145.604 C 371.519 146.589,371.537 146.926,372.374 147.479 C 374.704 149.016,378.573 148.848,379.807 147.156 C 380.406 146.333,380.356 143.776,379.726 143.102 C 379.106 142.437,378.245 142.030,376.641 141.643 C 375.242 141.306,374.544 140.845,374.724 140.376 C 374.981 139.706,376.207 139.717,377.656 140.403 L 378.688 140.892 379.179 140.304 C 380.165 139.123,380.239 138.829,379.673 138.343 C 378.476 137.313,374.996 136.985,373.607 137.771 M137.059 140.163 C 138.968 140.961,139.387 143.795,137.801 145.187 C 135.202 147.469,131.202 143.517,133.642 141.078 C 134.783 139.936,135.840 139.654,137.059 140.163 M323.828 140.107 C 327.756 140.949,326.898 145.753,322.819 145.753 L 321.644 145.753 321.644 142.831 L 321.644 139.909 322.274 139.909 C 322.621 139.909,323.320 139.998,323.828 140.107 M351.947 140.426 C 354.689 141.849,353.397 145.753,350.185 145.753 L 349.041 145.753 349.041 142.805 L 349.041 139.857 350.173 139.975 C 350.796 140.040,351.594 140.243,351.947 140.426 M171.872 143.511 C 171.872 143.539,171.379 143.562,170.776 143.562 C 170.174 143.562,169.680 143.523,169.680 143.477 C 169.680 143.284,170.336 141.991,170.548 141.768 C 170.674 141.635,170.778 141.388,170.781 141.220 C 170.784 141.051,171.030 141.486,171.329 142.187 C 171.628 142.887,171.872 143.483,171.872 143.511 M91.846 141.993 C 92.559 143.605,92.570 143.562,91.444 143.562 L 90.444 143.562 90.915 142.374 C 91.474 140.964,91.404 140.993,91.846 141.993 M289.340 142.433 C 289.814 143.539,289.801 143.562,288.676 143.562 C 287.519 143.562,287.547 143.622,288.077 142.256 C 288.543 141.054,288.762 141.084,289.340 142.433 M337.595 142.420 L 338.057 143.562 337.053 143.562 C 335.921 143.562,335.934 143.614,336.652 141.938 C 337.056 140.995,337.008 140.971,337.595 142.420 " stroke="none" fill="#fcfcfc" fill-rule="evenodd"></path><path id="path1" d="M354.096 27.153 C 353.734 27.514,353.998 28.608,354.601 29.244 C 355.625 30.324,356.617 32.011,357.184 33.634 L 357.717 35.160 357.768 47.991 L 357.820 60.822 342.198 60.822 L 326.575 60.822 326.575 66.575 L 326.575 72.329 342.192 72.329 L 357.808 72.329 357.808 84.628 C 357.808 99.368,357.613 100.656,354.969 103.359 C 354.113 104.234,353.900 104.687,354.003 105.415 L 354.064 105.845 366.758 105.895 C 373.740 105.923,379.637 105.901,379.863 105.846 C 380.571 105.675,380.413 104.734,379.488 103.606 C 378.315 102.176,377.213 100.119,376.756 98.509 L 376.350 97.078 376.295 67.763 C 376.258 48.634,376.304 37.839,376.426 36.696 C 376.605 35.021,377.335 32.388,377.683 32.162 C 377.774 32.103,377.983 31.793,378.147 31.472 C 378.311 31.152,378.861 30.340,379.369 29.669 C 380.146 28.643,380.285 28.342,380.238 27.786 L 380.183 27.123 367.201 27.076 C 360.060 27.051,354.163 27.085,354.096 27.153 M136.804 27.849 C 136.804 28.333,137.063 28.847,137.889 30.002 C 139.487 32.236,140.573 35.093,140.487 36.839 C 140.471 37.160,140.540 37.473,140.640 37.535 C 140.892 37.691,140.891 81.279,140.639 81.279 C 140.539 81.279,140.469 81.669,140.483 82.146 C 140.544 84.104,139.731 87.524,138.693 89.680 C 137.890 91.347,135.060 94.612,134.418 94.612 C 134.315 94.612,134.009 94.773,133.737 94.969 C 132.935 95.549,130.635 96.215,128.701 96.428 C 121.267 97.249,115.619 93.655,113.790 86.941 C 113.265 85.014,113.450 86.881,113.998 89.041 C 116.506 98.928,124.087 104.515,136.301 105.478 C 137.179 105.547,137.940 105.672,137.992 105.755 C 138.328 106.299,146.081 103.379,146.941 102.385 C 147.041 102.269,147.658 101.855,148.311 101.465 C 150.150 100.367,153.306 97.083,154.429 95.099 C 154.932 94.212,155.436 93.384,155.551 93.260 C 156.526 92.203,157.783 88.379,158.739 83.562 C 158.897 82.769,158.989 76.054,159.075 59.269 C 159.192 36.126,159.193 36.070,159.593 34.641 C 160.085 32.881,160.935 31.121,161.756 30.162 C 162.096 29.765,162.374 29.351,162.374 29.242 C 162.374 29.133,162.539 28.942,162.740 28.816 C 163.000 28.654,163.105 28.390,163.105 27.901 L 163.105 27.215 149.954 27.215 L 136.804 27.215 136.804 27.849 M227.836 30.685 C 227.836 32.242,227.864 32.879,227.898 32.100 C 227.933 31.322,227.933 30.048,227.898 29.269 C 227.864 28.491,227.836 29.128,227.836 30.685 M52.661 38.537 C 39.779 43.118,33.158 59.603,36.179 79.575 C 37.970 91.419,43.210 100.299,51.142 104.933 C 51.795 105.314,52.740 105.881,53.242 106.192 L 54.155 106.758 62.009 106.758 C 72.022 106.758,76.002 106.226,82.740 103.988 C 85.147 103.188,84.722 103.879,86.936 97.169 C 87.980 94.005,88.890 91.374,88.957 91.324 C 89.150 91.181,90.594 86.753,90.594 86.305 C 90.594 85.922,89.976 85.479,89.443 85.480 C 89.323 85.480,88.607 86.013,87.854 86.664 C 82.908 90.935,76.088 94.142,70.685 94.737 C 70.233 94.787,69.757 94.915,69.628 95.022 C 69.293 95.298,62.742 95.295,61.918 95.017 C 61.566 94.899,60.580 94.671,59.726 94.511 C 53.528 93.351,49.091 90.369,45.341 84.842 C 44.865 84.140,44.374 83.458,44.251 83.326 C 42.308 81.252,40.094 72.221,39.876 65.479 C 39.432 51.812,44.094 42.558,53.516 38.400 C 54.238 38.081,53.700 38.167,52.661 38.537 M199.909 38.773 C 188.667 43.342,182.423 56.430,183.387 73.410 C 184.279 89.120,190.345 100.729,200.259 105.695 C 200.769 105.951,201.340 106.295,201.526 106.459 C 202.366 107.200,216.552 106.952,221.918 106.102 C 225.151 105.591,231.792 103.810,232.607 103.236 C 232.710 103.164,233.648 100.516,234.692 97.352 C 235.736 94.187,236.772 91.187,236.994 90.685 C 237.215 90.183,237.665 88.956,237.993 87.959 L 238.590 86.146 238.179 85.813 C 237.453 85.224,236.419 85.745,234.469 87.682 C 231.599 90.532,223.408 94.157,218.539 94.731 C 218.037 94.790,217.517 94.925,217.385 95.031 C 217.040 95.309,210.479 95.307,209.772 95.029 C 209.470 94.911,208.936 94.778,208.584 94.733 C 202.728 93.995,197.065 90.521,193.612 85.549 C 193.062 84.757,192.556 84.068,192.487 84.018 C 192.126 83.753,190.800 80.916,190.145 79.006 C 184.203 61.693,189.091 43.161,200.794 38.634 C 201.412 38.395,201.795 38.195,201.644 38.189 C 201.493 38.184,200.712 38.447,199.909 38.773 M266.574 39.020 C 263.148 40.829,260.074 43.894,258.446 47.123 C 255.659 52.651,255.501 60.928,258.078 66.428 C 258.537 67.408,258.751 68.057,258.627 68.098 C 258.296 68.209,265.772 72.877,266.279 72.877 C 266.392 72.877,266.484 72.944,266.484 73.026 C 266.484 73.108,266.833 73.369,267.260 73.605 C 267.687 73.842,269.352 74.823,270.959 75.785 C 272.566 76.747,273.963 77.567,274.064 77.608 C 274.739 77.879,277.139 79.931,278.130 81.084 C 280.584 83.938,281.311 86.961,280.209 89.728 C 277.631 96.200,263.085 96.316,253.421 89.942 C 252.720 89.479,251.918 88.982,251.640 88.836 C 251.078 88.542,247.660 85.094,246.728 83.881 C 245.767 82.630,244.566 82.910,244.566 84.386 C 244.566 84.775,244.490 85.140,244.396 85.198 C 244.302 85.256,244.228 85.528,244.232 85.802 C 244.235 86.077,244.192 86.548,244.135 86.849 C 243.959 87.785,242.557 99.114,242.557 99.603 C 242.557 100.555,249.382 103.562,254.856 105.023 C 263.766 107.400,276.619 107.519,284.253 105.295 C 286.597 104.612,290.679 102.829,291.142 102.287 C 291.192 102.228,291.790 101.786,292.471 101.305 C 300.488 95.644,303.560 83.525,299.467 73.710 C 297.964 70.107,292.567 64.099,289.345 62.443 C 289.077 62.306,288.201 61.777,287.397 61.268 C 286.116 60.457,284.151 59.305,281.735 57.950 C 281.333 57.725,279.237 56.621,277.078 55.497 C 272.877 53.311,270.399 51.852,269.468 51.019 C 269.151 50.735,268.360 50.050,267.711 49.498 C 263.808 46.176,263.632 41.596,267.306 38.946 C 268.062 38.400,267.673 38.440,266.574 39.020 M99.185 95.251 C 99.186 95.352,99.354 95.639,99.560 95.890 C 99.808 96.194,99.870 96.224,99.744 95.982 C 99.437 95.386,99.184 95.056,99.185 95.251 M102.283 99.070 C 102.991 99.816,103.744 100.414,103.744 100.230 C 103.744 100.198,103.231 99.729,102.603 99.188 L 101.461 98.203 102.283 99.070 " stroke="none" fill="#2d526a" fill-rule="evenodd"></path><path id="path2" d="M205.023 25.621 C 200.386 26.220,197.033 26.866,195.708 27.414 C 195.406 27.539,195.098 27.658,195.023 27.679 C 194.947 27.700,194.845 27.737,194.795 27.763 C 194.744 27.788,194.621 27.829,194.521 27.854 C 194.420 27.879,194.297 27.920,194.247 27.945 C 194.196 27.970,194.094 28.002,194.018 28.016 C 193.943 28.031,193.779 28.107,193.653 28.187 C 193.527 28.267,193.423 28.266,193.422 28.184 C 193.420 28.103,193.351 28.143,193.268 28.274 C 193.186 28.405,192.940 28.525,192.723 28.541 C 192.506 28.558,192.329 28.636,192.329 28.715 C 192.329 28.794,192.238 28.858,192.128 28.858 C 191.198 28.858,184.030 32.952,182.453 34.384 C 182.259 34.559,182.025 34.703,181.933 34.703 C 181.841 34.703,181.507 35.030,181.190 35.430 C 180.874 35.829,180.559 36.143,180.490 36.126 C 180.421 36.110,179.743 36.728,178.982 37.500 C 178.221 38.272,177.646 38.905,177.704 38.907 C 177.761 38.908,177.497 39.216,177.117 39.592 C 176.013 40.681,175.367 41.478,174.680 42.603 C 174.326 43.180,173.948 43.653,173.838 43.653 C 173.728 43.653,173.687 43.702,173.747 43.762 C 173.807 43.822,173.519 44.418,173.107 45.086 C 172.264 46.456,170.412 50.256,170.408 50.625 C 170.406 50.805,170.360 50.797,170.228 50.594 C 170.041 50.304,169.961 50.630,170.036 51.370 C 170.054 51.546,169.984 51.689,169.880 51.689 C 169.777 51.689,169.739 51.813,169.797 51.963 C 169.855 52.114,169.814 52.237,169.706 52.237 C 169.598 52.237,169.556 52.361,169.614 52.511 C 169.674 52.667,169.619 52.785,169.487 52.785 C 169.359 52.785,169.308 52.839,169.374 52.906 C 169.440 52.972,169.420 53.116,169.329 53.225 C 168.800 53.863,167.607 59.480,167.308 62.740 C 166.987 66.241,167.224 72.224,167.707 72.822 C 167.804 72.943,167.829 73.214,167.763 73.425 C 167.696 73.635,167.737 73.923,167.854 74.064 C 167.971 74.205,168.015 74.482,167.953 74.679 C 167.890 74.876,167.931 75.095,168.044 75.164 C 168.158 75.235,168.200 75.484,168.139 75.728 C 168.072 75.995,168.110 76.164,168.235 76.164 C 168.364 76.164,168.398 76.336,168.327 76.621 C 168.255 76.907,168.290 77.078,168.420 77.078 C 168.537 77.078,168.586 77.236,168.532 77.443 C 168.479 77.644,168.516 77.857,168.614 77.918 C 168.712 77.978,168.749 78.140,168.696 78.277 C 168.644 78.415,168.685 78.579,168.788 78.643 C 168.890 78.706,168.932 78.871,168.879 79.008 C 168.826 79.145,168.867 79.310,168.970 79.373 C 169.073 79.437,169.113 79.604,169.059 79.745 C 169.005 79.885,169.050 80.000,169.159 80.000 C 169.268 80.000,169.316 80.160,169.264 80.357 C 169.213 80.553,169.230 80.738,169.302 80.767 C 169.374 80.797,169.754 81.767,170.145 82.922 C 171.452 86.778,174.430 91.857,177.081 94.749 L 178.294 96.073 183.257 96.078 L 188.219 96.082 188.858 97.024 C 190.008 98.718,192.887 101.545,193.596 101.678 C 194.218 101.793,194.208 101.777,192.624 99.998 C 185.570 92.075,182.229 79.055,183.463 64.292 L 183.547 63.288 183.388 64.201 C 183.301 64.703,183.175 65.751,183.106 66.530 C 182.983 67.943,182.982 67.945,182.450 67.945 C 182.146 67.945,181.918 67.847,181.918 67.717 C 181.952 55.356,187.816 43.975,196.513 39.390 C 199.661 37.730,207.309 35.856,206.661 36.903 C 206.563 37.062,207.187 37.057,207.671 36.894 C 207.721 36.878,208.186 36.876,208.704 36.892 C 209.222 36.907,209.820 36.812,210.034 36.679 C 210.325 36.499,210.455 36.492,210.554 36.651 C 210.705 36.892,212.418 37.031,212.746 36.828 C 212.864 36.755,213.131 36.787,213.340 36.898 C 213.548 37.010,213.899 37.084,214.120 37.062 C 214.340 37.041,214.644 37.067,214.795 37.120 C 214.945 37.173,215.726 37.360,216.530 37.536 C 218.854 38.045,223.878 39.970,224.286 40.509 C 224.545 40.850,226.705 41.826,227.202 41.826 L 227.763 41.826 227.760 35.114 C 227.757 28.358,227.712 27.836,227.154 28.050 C 226.973 28.120,226.849 28.077,226.849 27.945 C 226.849 27.823,226.731 27.769,226.587 27.824 C 226.443 27.879,226.299 27.850,226.268 27.759 C 226.236 27.667,225.922 27.569,225.571 27.540 C 225.219 27.512,224.890 27.437,224.840 27.373 C 224.704 27.201,220.482 26.350,218.082 26.011 C 215.678 25.671,206.708 25.403,205.023 25.621 M272.312 25.465 C 272.270 25.508,271.373 25.634,270.318 25.745 C 267.196 26.074,262.466 27.094,262.466 27.438 C 262.466 27.537,262.342 27.572,262.192 27.514 C 262.041 27.456,261.918 27.486,261.918 27.580 C 261.918 27.674,261.795 27.704,261.644 27.646 C 261.493 27.588,261.370 27.629,261.370 27.737 C 261.370 27.845,261.247 27.886,261.096 27.829 C 260.945 27.771,260.822 27.819,260.822 27.936 C 260.822 28.054,260.747 28.103,260.655 28.046 C 260.563 27.989,260.460 28.018,260.427 28.110 C 260.393 28.202,260.201 28.305,260.000 28.339 C 259.799 28.374,259.594 28.453,259.543 28.516 C 259.493 28.578,258.836 28.935,258.082 29.310 C 256.100 30.294,254.338 31.522,252.974 32.867 C 252.318 33.515,251.722 34.030,251.650 34.011 C 251.579 33.992,251.558 34.079,251.605 34.203 C 251.652 34.327,251.411 34.732,251.070 35.103 C 250.729 35.474,250.494 35.821,250.548 35.875 C 250.602 35.929,250.511 36.025,250.347 36.088 C 250.182 36.151,250.093 36.276,250.149 36.366 C 250.204 36.456,250.165 36.530,250.062 36.530 C 249.799 36.530,248.517 39.283,248.063 40.822 C 245.892 48.186,247.355 56.248,251.817 61.507 L 252.631 62.466 254.498 62.466 L 256.364 62.466 256.137 60.959 C 255.377 55.908,256.593 49.652,259.101 45.714 C 259.517 45.061,259.629 44.787,259.395 44.996 C 258.158 46.101,258.890 44.251,260.481 42.253 C 266.585 34.582,277.187 32.896,287.781 37.913 C 290.282 39.097,290.046 39.561,290.046 33.461 C 290.046 28.152,289.987 27.656,289.384 27.888 C 289.246 27.941,289.132 27.885,289.132 27.763 C 289.132 27.641,289.009 27.588,288.858 27.646 C 288.708 27.704,288.584 27.663,288.584 27.555 C 288.584 27.447,288.471 27.402,288.333 27.455 C 288.194 27.508,288.009 27.483,287.922 27.399 C 287.067 26.580,272.946 24.831,272.312 25.465 M56.621 25.684 C 53.059 26.112,47.769 27.195,47.489 27.554 C 47.438 27.619,47.195 27.694,46.949 27.721 C 46.702 27.749,46.444 27.862,46.375 27.973 C 46.307 28.084,46.160 28.118,46.048 28.049 C 45.936 27.980,45.845 28.016,45.845 28.128 C 45.845 28.240,45.763 28.281,45.662 28.219 C 45.562 28.157,45.479 28.200,45.479 28.315 C 45.479 28.430,45.377 28.490,45.253 28.448 C 45.128 28.406,44.913 28.485,44.775 28.624 C 44.637 28.762,44.431 28.844,44.318 28.806 C 44.205 28.769,43.997 28.853,43.856 28.995 C 43.714 29.136,43.438 29.210,43.242 29.159 C 43.047 29.108,42.937 29.116,42.998 29.178 C 43.060 29.239,42.260 29.714,41.220 30.233 C 40.181 30.751,38.735 31.561,38.007 32.032 C 37.279 32.502,36.739 32.782,36.805 32.654 C 36.872 32.525,36.776 32.592,36.591 32.802 C 36.407 33.011,35.721 33.583,35.068 34.071 C 34.416 34.560,33.816 35.066,33.735 35.197 C 33.655 35.327,33.527 35.434,33.452 35.434 C 33.277 35.434,29.269 39.436,29.356 39.524 C 29.392 39.560,29.190 39.784,28.907 40.023 C 27.701 41.038,24.458 46.181,23.184 49.097 C 22.759 50.071,22.362 50.909,22.301 50.959 C 22.241 51.009,22.184 51.153,22.174 51.279 C 22.103 52.160,22.104 52.159,21.900 51.872 C 21.750 51.661,21.731 51.714,21.815 52.100 C 21.879 52.391,21.846 52.603,21.739 52.603 C 21.636 52.603,21.562 52.664,21.574 52.740 C 21.586 52.815,21.576 52.938,21.551 53.014 C 21.527 53.089,21.490 53.212,21.469 53.288 C 21.448 53.363,21.328 53.671,21.202 53.973 C 21.077 54.274,20.955 54.688,20.932 54.894 C 20.909 55.099,20.845 55.345,20.789 55.442 C 20.733 55.538,20.588 56.068,20.466 56.621 C 20.345 57.174,20.201 57.749,20.147 57.900 C 20.092 58.050,20.026 58.379,19.999 58.630 C 19.972 58.881,19.839 59.785,19.703 60.639 C 19.550 61.603,19.457 63.716,19.458 66.210 C 19.459 69.867,19.505 70.683,19.824 72.694 C 19.879 73.046,19.949 73.539,19.978 73.790 C 20.008 74.041,20.093 74.386,20.169 74.557 C 20.245 74.728,20.251 74.958,20.183 75.068 C 20.115 75.177,20.158 75.386,20.279 75.531 C 20.399 75.676,20.454 75.909,20.400 76.048 C 20.346 76.188,20.379 76.379,20.472 76.472 C 20.566 76.566,20.662 76.987,20.687 77.407 C 20.711 77.828,20.802 78.172,20.889 78.173 C 20.976 78.173,21.004 78.338,20.952 78.539 C 20.899 78.740,20.940 78.904,21.043 78.904 C 21.146 78.904,21.188 79.065,21.137 79.261 C 21.085 79.457,21.096 79.642,21.161 79.672 C 21.226 79.702,21.664 80.896,22.136 82.326 C 22.877 84.574,24.487 88.309,24.834 88.584 C 24.897 88.635,25.184 89.087,25.470 89.589 C 26.278 91.005,29.015 94.627,29.847 95.380 L 30.594 96.057 35.458 96.065 L 40.323 96.073 40.649 96.575 C 42.053 98.742,44.816 101.490,45.753 101.651 L 46.484 101.778 45.552 100.798 C 37.939 92.793,33.987 77.893,35.699 63.653 L 35.787 62.922 35.619 63.562 C 35.526 63.913,35.393 65.043,35.324 66.073 L 35.197 67.945 34.676 67.945 C 34.035 67.945,33.994 67.221,34.428 63.509 C 35.980 50.245,42.339 41.116,52.269 37.899 C 55.174 36.957,58.813 36.399,58.813 36.895 C 58.813 36.995,59.018 37.078,59.269 37.078 C 59.521 37.078,59.726 37.009,59.726 36.926 C 59.726 36.842,60.184 36.812,60.744 36.858 C 61.378 36.911,61.927 36.854,62.199 36.709 C 62.537 36.527,62.695 36.524,62.897 36.691 C 63.041 36.811,63.681 36.911,64.319 36.914 C 66.096 36.922,66.932 36.976,67.032 37.089 C 67.082 37.145,67.616 37.296,68.219 37.424 C 71.186 38.054,74.113 39.184,77.093 40.849 C 78.056 41.386,79.063 41.826,79.331 41.826 L 79.817 41.826 79.817 35.175 C 79.817 28.339,79.788 27.898,79.346 28.068 C 79.203 28.122,79.087 28.067,79.087 27.945 C 79.087 27.823,78.966 27.770,78.819 27.826 C 78.671 27.883,78.498 27.845,78.435 27.742 C 78.371 27.639,78.207 27.598,78.070 27.651 C 77.932 27.703,77.768 27.662,77.704 27.559 C 77.641 27.457,77.474 27.416,77.333 27.470 C 77.193 27.524,77.078 27.489,77.078 27.392 C 77.078 27.294,76.872 27.215,76.621 27.215 C 76.370 27.215,76.164 27.128,76.164 27.021 C 76.164 26.915,76.090 26.874,76.000 26.929 C 75.909 26.985,75.037 26.867,74.060 26.666 C 70.324 25.897,68.361 25.724,62.740 25.665 C 59.726 25.633,56.973 25.642,56.621 25.684 M90.594 27.819 C 90.594 28.283,90.786 28.629,91.430 29.321 C 92.289 30.243,93.494 32.514,93.898 33.973 C 94.023 34.425,94.189 34.868,94.267 34.958 C 94.346 35.048,94.363 35.356,94.305 35.643 C 94.248 35.930,94.273 36.164,94.361 36.164 C 94.451 36.164,94.499 45.210,94.470 57.078 C 94.432 72.543,94.473 77.991,94.625 77.991 C 94.768 77.991,94.812 78.472,94.768 79.543 C 94.732 80.397,94.773 81.096,94.859 81.096 C 94.944 81.096,94.985 81.466,94.949 81.918 C 94.913 82.370,94.936 82.740,95.000 82.740 C 95.065 82.740,95.176 83.212,95.248 83.790 C 95.681 87.289,97.797 92.643,99.904 95.571 L 100.659 96.621 108.134 96.621 L 115.608 96.621 117.099 98.174 C 118.854 100.002,121.289 101.737,122.098 101.736 C 122.626 101.735,122.612 101.714,121.682 101.088 C 117.715 98.416,114.728 93.577,113.398 87.666 L 112.968 85.753 112.991 61.279 C 113.003 47.510,112.954 38.561,112.877 40.822 C 112.802 43.032,112.730 49.340,112.717 54.840 L 112.694 64.840 112.173 64.840 L 111.653 64.840 111.534 63.168 C 111.272 59.470,111.404 35.781,111.694 34.551 C 112.077 32.926,113.020 30.987,114.125 29.550 C 114.785 28.692,115.068 28.157,115.068 27.769 L 115.068 27.215 102.831 27.215 L 90.594 27.215 90.594 27.819 M304.292 27.901 C 304.292 28.395,304.397 28.653,304.665 28.821 C 305.777 29.515,307.547 33.267,307.916 35.708 C 308.040 36.536,308.154 47.332,308.238 66.347 L 308.367 95.708 316.638 95.708 L 324.909 95.708 325.017 96.575 C 325.350 99.239,326.023 100.822,326.823 100.822 L 327.432 100.822 327.073 99.772 C 326.876 99.194,326.704 98.373,326.691 97.946 C 326.677 97.520,326.626 97.171,326.575 97.170 C 326.525 97.170,326.513 93.409,326.548 88.813 C 326.583 84.217,326.553 76.820,326.481 72.374 L 326.350 64.292 325.727 64.292 L 325.104 64.292 325.155 49.452 L 325.205 34.612 325.772 33.144 C 326.401 31.515,327.010 30.466,328.063 29.198 C 328.548 28.615,328.767 28.174,328.767 27.783 L 328.767 27.215 316.530 27.215 L 304.292 27.215 304.292 27.901 M273.425 36.712 C 273.210 36.851,273.258 36.890,273.642 36.892 C 273.913 36.894,274.184 36.813,274.247 36.712 C 274.391 36.479,273.786 36.479,273.425 36.712 M277.260 36.712 C 277.411 36.810,277.781 36.885,278.082 36.879 C 278.553 36.871,278.578 36.847,278.265 36.712 C 277.728 36.481,276.903 36.481,277.260 36.712 M271.963 36.895 C 271.963 36.995,272.087 37.078,272.237 37.078 C 272.388 37.078,272.511 36.995,272.511 36.895 C 272.511 36.795,272.388 36.712,272.237 36.712 C 272.087 36.712,271.963 36.795,271.963 36.895 M278.904 36.895 C 278.904 36.995,279.073 37.078,279.280 37.078 C 279.487 37.078,279.605 36.995,279.543 36.895 C 279.481 36.795,279.312 36.712,279.167 36.712 C 279.023 36.712,278.904 36.795,278.904 36.895 M267.763 38.174 C 267.399 38.408,267.856 38.408,268.402 38.174 L 268.767 38.017 268.402 38.007 C 268.201 38.001,267.913 38.076,267.763 38.174 M286.758 39.182 C 286.758 39.287,288.343 40.004,288.554 39.994 C 288.727 39.987,288.143 39.661,287.396 39.348 C 287.045 39.202,286.758 39.127,286.758 39.182 M288.928 40.234 C 289.016 40.322,289.324 40.364,289.612 40.328 C 290.095 40.268,290.083 40.255,289.452 40.168 C 289.060 40.114,288.836 40.142,288.928 40.234 M262.185 41.872 L 261.279 42.831 262.237 41.925 C 262.765 41.426,263.196 40.995,263.196 40.966 C 263.196 40.829,263.027 40.981,262.185 41.872 M183.604 62.648 C 183.604 63.000,183.642 63.144,183.688 62.968 C 183.733 62.792,183.733 62.505,183.688 62.329 C 183.642 62.153,183.604 62.297,183.604 62.648 M19.909 123.836 L 19.909 124.933 36.210 124.887 L 52.511 124.840 52.511 123.836 L 52.511 122.831 36.210 122.784 L 19.909 122.738 19.909 123.836 M348.493 123.836 L 348.493 124.932 364.749 124.932 L 381.005 124.932 381.005 123.836 L 381.005 122.740 364.749 122.740 L 348.493 122.740 348.493 123.836 M19.909 156.256 L 19.909 157.260 200.457 157.260 L 381.005 157.260 381.005 156.256 L 381.005 155.251 200.457 155.251 L 19.909 155.251 19.909 156.256 " stroke="none" fill="#be5a5c" fill-rule="evenodd"></path><path id="path3" d="M115.068 27.769 C 115.068 28.157,114.785 28.692,114.125 29.550 C 113.020 30.987,112.077 32.926,111.694 34.551 C 111.404 35.781,111.272 59.470,111.534 63.168 L 111.653 64.840 112.173 64.840 L 112.694 64.840 112.704 55.114 C 112.719 41.775,112.912 36.120,113.415 34.367 C 113.878 32.755,115.182 30.148,115.806 29.589 C 116.970 28.545,117.017 27.215,115.890 27.215 C 115.097 27.215,115.068 27.234,115.068 27.769 M328.767 27.783 C 328.767 28.174,328.548 28.615,328.063 29.198 C 327.010 30.466,326.401 31.515,325.772 33.144 L 325.205 34.612 325.155 49.452 L 325.104 64.292 325.748 64.292 C 326.103 64.292,326.403 64.272,326.415 64.247 C 326.427 64.221,326.497 57.749,326.570 49.863 C 326.688 37.046,326.736 35.410,327.019 34.440 C 327.509 32.761,328.886 30.125,329.601 29.498 C 330.732 28.506,330.725 27.215,329.589 27.215 C 328.791 27.215,328.767 27.231,328.767 27.783 M272.329 35.185 C 267.401 36.126,262.241 39.464,259.626 43.404 C 258.234 45.502,258.547 46.049,260.056 44.155 C 262.327 41.306,266.354 38.370,268.584 37.938 C 268.886 37.880,269.461 37.688,269.863 37.512 C 270.265 37.336,270.664 37.211,270.750 37.233 C 270.836 37.255,271.010 37.187,271.138 37.081 C 271.265 36.975,271.503 36.940,271.666 37.003 C 271.830 37.065,271.963 37.034,271.963 36.933 C 271.963 36.832,272.272 36.747,272.648 36.746 C 279.539 36.712,279.314 36.706,279.587 36.932 C 279.711 37.034,279.947 37.067,280.112 37.004 C 280.277 36.940,280.521 36.979,280.654 37.090 C 280.788 37.201,280.977 37.242,281.075 37.182 C 281.173 37.121,281.308 37.161,281.376 37.270 C 281.443 37.379,281.627 37.418,281.785 37.358 C 281.942 37.297,282.120 37.327,282.179 37.423 C 282.239 37.519,282.533 37.625,282.833 37.658 C 283.133 37.690,283.420 37.763,283.470 37.819 C 283.521 37.876,284.219 38.151,285.023 38.432 C 285.826 38.713,287.091 39.221,287.834 39.562 C 289.687 40.414,290.046 40.396,290.046 39.452 C 290.046 38.919,289.970 38.721,289.767 38.721 C 289.614 38.721,288.730 38.363,287.804 37.924 C 282.976 35.640,276.215 34.443,272.329 35.185 M55.666 37.000 C 43.888 39.130,36.150 48.789,34.428 63.509 C 33.994 67.219,34.035 67.945,34.676 67.945 L 35.196 67.945 35.308 66.240 C 36.005 55.630,40.470 46.245,47.205 41.233 C 49.662 39.404,55.393 36.960,56.357 37.330 C 56.502 37.386,56.621 37.342,56.621 37.233 C 56.621 37.120,56.817 37.073,57.078 37.122 C 57.329 37.170,57.534 37.128,57.534 37.028 C 57.534 36.923,57.803 36.891,58.174 36.951 C 58.525 37.008,58.813 36.978,58.813 36.883 C 58.813 36.644,57.336 36.698,55.666 37.000 M203.188 37.074 C 190.539 39.609,181.961 51.966,181.918 67.717 C 181.918 67.847,182.145 67.945,182.447 67.945 C 182.972 67.945,182.978 67.933,183.095 66.621 C 184.457 51.435,191.039 41.261,201.674 37.901 C 202.496 37.641,203.278 37.470,203.411 37.521 C 203.544 37.572,203.653 37.525,203.653 37.416 C 203.653 37.307,203.817 37.261,204.018 37.313 C 204.219 37.366,204.433 37.327,204.495 37.228 C 204.556 37.129,204.803 37.097,205.043 37.158 C 205.313 37.225,205.479 37.187,205.479 37.058 C 205.479 36.924,205.673 36.888,206.020 36.957 C 206.318 37.017,206.610 36.986,206.670 36.889 C 206.843 36.610,205.021 36.707,203.188 37.074 " stroke="none" fill="#ee989c" fill-rule="evenodd"></path><path id="path4" d="M59.945 25.524 C 60.819 25.557,62.298 25.558,63.233 25.524 C 64.167 25.491,63.452 25.464,61.644 25.464 C 59.836 25.463,59.071 25.491,59.945 25.524 M207.708 25.524 C 208.582 25.557,210.061 25.558,210.995 25.524 C 211.930 25.491,211.215 25.464,209.406 25.464 C 207.598 25.463,206.834 25.491,207.708 25.524 M56.212 25.700 C 56.439 25.744,56.768 25.742,56.943 25.696 C 57.117 25.651,56.932 25.615,56.530 25.617 C 56.128 25.619,55.985 25.656,56.212 25.700 M66.804 25.700 C 67.030 25.743,67.400 25.743,67.626 25.700 C 67.852 25.656,67.667 25.621,67.215 25.621 C 66.763 25.621,66.578 25.656,66.804 25.700 M203.975 25.700 C 204.202 25.744,204.531 25.742,204.705 25.696 C 204.880 25.651,204.694 25.615,204.292 25.617 C 203.890 25.619,203.748 25.656,203.975 25.700 M214.749 25.700 C 214.975 25.743,215.345 25.743,215.571 25.700 C 215.797 25.656,215.612 25.621,215.160 25.621 C 214.708 25.621,214.523 25.656,214.749 25.700 M270.276 25.700 C 270.503 25.744,270.832 25.742,271.007 25.696 C 271.181 25.651,270.995 25.615,270.594 25.617 C 270.192 25.619,270.049 25.656,270.276 25.700 M278.495 25.700 C 278.722 25.744,279.051 25.742,279.226 25.696 C 279.401 25.651,279.215 25.615,278.813 25.617 C 278.411 25.619,278.268 25.656,278.495 25.700 M68.904 25.879 C 69.080 25.925,69.368 25.925,69.543 25.879 C 69.719 25.833,69.575 25.796,69.224 25.796 C 68.872 25.796,68.728 25.833,68.904 25.879 M216.849 25.879 C 217.025 25.925,217.313 25.925,217.489 25.879 C 217.664 25.833,217.521 25.796,217.169 25.796 C 216.817 25.796,216.674 25.833,216.849 25.879 M264.201 26.667 C 263.735 26.867,264.216 26.867,264.840 26.667 C 265.207 26.549,265.225 26.519,264.932 26.515 C 264.731 26.512,264.402 26.580,264.201 26.667 M47.945 27.215 C 47.715 27.314,47.681 27.372,47.854 27.372 C 48.005 27.372,48.292 27.301,48.493 27.215 C 48.723 27.116,48.757 27.058,48.584 27.058 C 48.434 27.058,48.146 27.128,47.945 27.215 M310.927 27.169 C 314.525 27.197,320.361 27.197,323.895 27.169 C 327.428 27.141,324.484 27.118,317.352 27.118 C 310.219 27.119,307.328 27.141,310.927 27.169 M77.078 27.408 C 77.078 27.514,77.163 27.548,77.268 27.484 C 77.373 27.419,77.571 27.459,77.709 27.573 C 77.857 27.696,78.001 27.711,78.064 27.610 C 78.122 27.516,77.985 27.389,77.761 27.329 C 77.186 27.175,77.078 27.188,77.078 27.408 M194.749 27.518 C 194.623 27.569,194.521 27.696,194.521 27.800 C 194.521 27.925,194.605 27.920,194.766 27.787 C 194.900 27.675,195.057 27.629,195.113 27.685 C 195.169 27.741,195.269 27.699,195.335 27.592 C 195.458 27.392,195.156 27.354,194.749 27.518 M289.826 27.982 C 289.988 28.143,290.046 29.796,290.046 34.283 C 290.046 38.216,290.110 40.365,290.228 40.365 C 290.427 40.365,290.496 28.562,290.300 28.051 C 290.239 27.893,290.058 27.763,289.898 27.763 C 289.672 27.763,289.656 27.811,289.826 27.982 M45.302 28.121 C 45.154 28.214,45.104 28.357,45.190 28.438 C 45.276 28.518,45.384 28.481,45.429 28.355 C 45.474 28.229,45.586 28.172,45.678 28.229 C 45.770 28.286,45.845 28.245,45.845 28.139 C 45.845 27.902,45.658 27.896,45.302 28.121 M79.773 33.105 C 79.799 35.943,79.843 39.087,79.871 40.091 C 79.900 41.096,79.940 38.774,79.961 34.932 C 79.983 31.089,79.938 27.945,79.863 27.945 C 79.788 27.945,79.747 30.267,79.773 33.105 M259.954 28.066 C 259.580 28.217,259.696 28.467,260.091 28.363 C 260.292 28.311,260.457 28.195,260.457 28.107 C 260.457 27.932,260.314 27.921,259.954 28.066 M192.740 28.249 C 192.366 28.400,192.481 28.650,192.877 28.546 C 193.078 28.494,193.242 28.378,193.242 28.289 C 193.242 28.115,193.100 28.104,192.740 28.249 M44.521 28.449 C 44.345 28.488,44.201 28.596,44.201 28.689 C 44.201 28.903,44.399 28.901,44.744 28.683 C 45.072 28.475,44.954 28.352,44.521 28.449 M258.628 28.746 C 257.639 29.238,256.438 29.962,256.438 30.066 C 256.438 30.137,259.365 28.714,259.528 28.563 C 259.810 28.303,259.316 28.404,258.628 28.746 M189.909 29.600 C 187.167 30.990,187.131 31.143,189.849 29.850 C 190.997 29.305,192.024 28.858,192.132 28.858 C 192.240 28.858,192.329 28.776,192.329 28.676 C 192.329 28.391,192.190 28.443,189.909 29.600 M42.648 29.347 C 41.424 30.050,41.467 30.059,42.973 29.418 C 43.548 29.174,44.018 28.907,44.018 28.825 C 44.018 28.597,43.834 28.667,42.648 29.347 M91.961 30.370 C 92.615 31.352,93.151 32.249,93.151 32.364 C 93.151 32.478,93.200 32.523,93.260 32.463 C 93.438 32.285,92.292 30.292,91.503 29.406 C 90.911 28.743,90.999 28.928,91.961 30.370 M305.592 30.340 C 306.234 31.306,306.789 32.070,306.827 32.037 C 306.943 31.937,305.254 29.324,304.827 28.942 C 304.607 28.745,304.951 29.375,305.592 30.340 M255.017 30.944 C 254.415 31.387,253.860 31.851,253.784 31.973 C 253.708 32.096,254.065 31.877,254.577 31.486 C 255.089 31.096,255.697 30.636,255.927 30.465 C 256.158 30.293,256.294 30.150,256.230 30.145 C 256.166 30.141,255.620 30.500,255.017 30.944 M39.772 30.789 C 39.089 31.160,39.130 31.314,39.817 30.959 C 40.119 30.803,40.365 30.637,40.365 30.589 C 40.365 30.471,40.346 30.478,39.772 30.789 M184.503 32.690 C 183.885 33.090,183.379 33.469,183.379 33.533 C 183.379 33.645,183.553 33.543,185.068 32.548 C 185.683 32.144,185.875 31.963,185.690 31.963 C 185.656 31.963,185.122 32.290,184.503 32.690 M252.338 33.264 C 250.748 34.957,248.472 38.153,249.817 36.804 C 250.018 36.603,250.151 36.385,250.115 36.321 C 250.078 36.256,250.176 36.154,250.332 36.093 C 250.489 36.033,250.566 35.902,250.503 35.800 C 250.441 35.699,250.460 35.616,250.545 35.616 C 250.631 35.616,251.025 35.185,251.421 34.658 C 251.817 34.130,252.183 33.656,252.235 33.604 C 252.848 32.982,253.566 32.146,253.487 32.146 C 253.432 32.146,252.915 32.649,252.338 33.264 M35.616 33.382 C 34.054 34.576,33.236 35.306,33.341 35.411 C 33.403 35.473,33.551 35.399,33.668 35.244 C 33.785 35.090,34.416 34.564,35.068 34.074 C 36.544 32.966,36.650 32.874,36.429 32.885 C 36.334 32.890,35.968 33.114,35.616 33.382 M227.841 37.626 C 227.841 39.986,227.867 40.952,227.899 39.772 C 227.931 38.591,227.931 36.660,227.899 35.479 C 227.867 34.299,227.841 35.265,227.841 37.626 M93.724 33.790 C 93.724 33.941,93.795 34.228,93.881 34.429 C 93.980 34.659,94.038 34.693,94.038 34.521 C 94.038 34.370,93.968 34.082,93.881 33.881 C 93.782 33.651,93.724 33.617,93.724 33.790 M94.064 35.251 C 94.064 35.592,94.113 35.641,94.283 35.470 C 94.454 35.300,94.454 35.202,94.283 35.032 C 94.113 34.861,94.064 34.910,94.064 35.251 M180.947 35.398 C 180.468 35.899,180.284 36.292,180.631 36.078 C 180.828 35.957,181.615 34.886,181.508 34.886 C 181.470 34.886,181.217 35.116,180.947 35.398 M32.694 35.851 C 32.543 35.974,31.765 36.773,30.964 37.626 L 29.508 39.178 31.284 37.447 C 32.260 36.494,33.059 35.693,33.059 35.666 C 33.059 35.579,32.975 35.622,32.694 35.851 M94.247 36.814 C 94.247 37.201,94.321 37.419,94.429 37.352 C 94.530 37.290,94.612 36.997,94.612 36.702 C 94.612 36.406,94.530 36.164,94.429 36.164 C 94.329 36.164,94.247 36.457,94.247 36.814 M179.080 37.306 L 178.174 38.265 179.132 37.358 C 180.023 36.516,180.175 36.347,180.039 36.347 C 180.010 36.347,179.578 36.779,179.080 37.306 M62.192 36.712 C 62.128 36.816,62.285 36.895,62.557 36.895 C 62.829 36.895,62.987 36.816,62.922 36.712 C 62.860 36.612,62.696 36.530,62.557 36.530 C 62.418 36.530,62.254 36.612,62.192 36.712 M209.954 36.712 C 209.892 36.813,210.011 36.895,210.218 36.895 C 210.424 36.895,210.594 36.813,210.594 36.712 C 210.594 36.612,210.475 36.530,210.330 36.530 C 210.186 36.530,210.016 36.612,209.954 36.712 M307.981 66.683 C 307.946 96.298,307.938 96.958,307.579 98.360 C 307.083 100.300,306.204 102.150,305.160 103.452 C 304.464 104.321,304.292 104.673,304.292 105.235 L 304.292 105.936 317.352 105.936 L 330.411 105.936 330.411 105.189 C 330.411 104.571,330.277 104.289,329.629 103.549 C 328.634 102.411,327.546 100.245,327.154 98.620 C 326.987 97.924,326.777 97.354,326.689 97.353 C 326.478 97.351,326.687 98.615,327.101 99.842 L 327.432 100.822 326.823 100.822 C 326.023 100.822,325.350 99.239,325.017 96.575 L 324.909 95.708 316.610 95.708 L 308.311 95.708 308.284 80.320 C 308.270 71.856,308.204 58.521,308.138 50.685 C 308.034 38.442,308.012 40.691,307.981 66.683 M64.921 36.912 C 64.865 37.003,65.029 37.078,65.286 37.078 C 65.846 37.078,65.891 36.974,65.388 36.842 C 65.187 36.790,64.977 36.821,64.921 36.912 M212.694 36.895 C 212.629 37.000,212.798 37.076,213.094 37.075 C 213.493 37.073,213.546 37.032,213.333 36.895 C 212.982 36.668,212.834 36.668,212.694 36.895 M66.374 37.108 C 66.322 37.192,66.449 37.260,66.656 37.260 C 66.863 37.260,67.032 37.192,67.032 37.108 C 67.032 37.024,66.905 36.956,66.750 36.956 C 66.595 36.956,66.426 37.024,66.374 37.108 M53.242 38.151 C 51.574 38.745,50.046 39.400,50.046 39.522 C 50.046 39.567,50.724 39.326,51.553 38.986 C 52.381 38.647,53.450 38.268,53.927 38.145 C 54.404 38.022,54.795 37.855,54.795 37.774 C 54.795 37.583,54.925 37.552,53.242 38.151 M201.005 38.150 C 199.497 38.684,197.263 39.756,196.621 40.254 C 196.420 40.409,197.052 40.132,198.026 39.638 C 198.999 39.143,200.396 38.560,201.131 38.341 C 201.865 38.122,202.544 37.872,202.639 37.785 C 202.930 37.518,202.549 37.603,201.005 38.150 M71.781 38.508 C 71.932 38.601,72.260 38.732,72.511 38.799 C 72.829 38.884,72.884 38.870,72.694 38.752 C 72.543 38.659,72.215 38.528,71.963 38.461 C 71.646 38.376,71.590 38.390,71.781 38.508 M248.614 38.821 C 248.308 39.492,248.367 39.636,248.697 39.025 C 248.852 38.740,248.944 38.472,248.902 38.431 C 248.861 38.389,248.731 38.564,248.614 38.821 M266.073 39.098 C 265.395 39.505,264.840 39.884,264.840 39.940 C 264.840 39.996,265.025 39.921,265.251 39.774 C 265.887 39.360,266.884 38.836,267.489 38.599 C 267.899 38.438,267.945 38.381,267.671 38.371 C 267.470 38.364,266.751 38.691,266.073 39.098 M177.077 39.271 C 176.588 39.810,176.850 39.895,177.352 39.360 C 177.588 39.109,177.697 38.904,177.594 38.904 C 177.492 38.904,177.259 39.069,177.077 39.271 M28.766 39.818 C 28.278 40.358,28.539 40.443,29.042 39.908 C 29.277 39.657,29.386 39.452,29.284 39.452 C 29.181 39.452,28.948 39.617,28.766 39.818 M49.269 39.922 C 48.587 40.292,48.628 40.447,49.315 40.091 C 49.616 39.935,49.863 39.769,49.863 39.721 C 49.863 39.604,49.843 39.610,49.269 39.922 M74.718 39.703 C 74.906 39.871,75.982 40.365,75.982 40.283 C 75.982 40.178,74.969 39.635,74.773 39.635 C 74.701 39.635,74.677 39.665,74.718 39.703 M263.836 40.562 C 262.617 41.482,260.487 43.631,259.899 44.535 C 259.594 45.004,259.532 45.142,259.762 44.840 C 260.345 44.075,263.338 41.088,264.110 40.502 C 264.461 40.236,264.708 40.016,264.658 40.014 C 264.607 40.012,264.237 40.258,263.836 40.562 M175.982 40.548 C 175.800 40.749,175.743 40.913,175.856 40.913 C 175.968 40.913,176.148 40.749,176.256 40.548 C 176.363 40.347,176.420 40.183,176.382 40.183 C 176.344 40.183,176.164 40.347,175.982 40.548 M27.626 41.233 C 26.773 42.331,25.895 43.672,25.976 43.753 C 26.017 43.795,26.562 43.090,27.187 42.188 C 28.348 40.513,28.583 40.002,27.626 41.233 M247.776 41.200 C 247.708 41.468,247.689 41.722,247.732 41.765 C 247.775 41.808,247.865 41.624,247.932 41.357 C 247.999 41.089,248.019 40.835,247.976 40.792 C 247.933 40.749,247.843 40.933,247.776 41.200 M174.420 42.661 C 174.105 43.120,173.886 43.535,173.934 43.584 C 173.982 43.632,174.277 43.256,174.589 42.749 C 175.297 41.599,175.190 41.543,174.420 42.661 M192.140 43.790 L 191.142 44.840 192.192 43.842 C 193.167 42.914,193.326 42.740,193.190 42.740 C 193.162 42.740,192.689 43.212,192.140 43.790 M190.386 45.799 C 189.460 46.964,189.347 47.123,189.446 47.123 C 189.492 47.123,189.913 46.630,190.381 46.027 C 190.850 45.425,191.197 44.932,191.154 44.932 C 191.110 44.932,190.765 45.322,190.386 45.799 M247.013 48.037 C 247.013 49.493,247.042 50.089,247.076 49.361 C 247.111 48.632,247.111 47.441,247.076 46.712 C 247.042 45.984,247.013 46.580,247.013 48.037 M258.347 46.958 C 258.187 47.268,258.088 47.555,258.127 47.595 C 258.167 47.634,258.336 47.380,258.503 47.030 C 258.879 46.242,258.749 46.182,258.347 46.958 M171.406 47.872 C 171.147 48.384,170.965 48.834,171.002 48.872 C 171.040 48.909,171.291 48.490,171.561 47.940 C 171.830 47.390,172.012 46.941,171.965 46.941 C 171.917 46.941,171.666 47.360,171.406 47.872 M40.851 48.174 C 39.678 50.034,38.035 53.438,38.220 53.624 C 38.259 53.663,38.563 53.036,38.895 52.232 C 39.227 51.428,39.935 50.031,40.468 49.129 C 41.423 47.514,41.694 46.837,40.851 48.174 M188.225 48.941 C 187.543 50.063,186.296 52.648,186.309 52.910 C 186.313 52.992,186.717 52.237,187.206 51.233 C 187.696 50.228,188.313 49.057,188.579 48.630 C 188.844 48.203,189.022 47.854,188.973 47.854 C 188.925 47.854,188.588 48.343,188.225 48.941 M22.861 49.414 C 22.555 50.086,22.613 50.229,22.944 49.619 C 23.099 49.333,23.191 49.066,23.149 49.024 C 23.107 48.982,22.977 49.158,22.861 49.414 M170.535 49.780 C 170.366 50.134,170.230 50.523,170.232 50.645 C 170.235 50.768,170.400 50.506,170.601 50.064 C 171.035 49.107,170.977 48.854,170.535 49.780 M257.190 49.698 C 257.078 50.020,256.992 50.373,256.999 50.484 C 257.006 50.594,257.130 50.363,257.274 49.970 C 257.418 49.577,257.504 49.224,257.465 49.185 C 257.426 49.146,257.302 49.377,257.190 49.698 M256.549 52.091 C 255.870 55.160,255.727 58.235,256.137 60.959 L 256.364 62.466 254.498 62.466 L 252.631 62.466 251.817 61.507 C 249.747 59.067,247.911 55.126,247.312 51.836 L 247.136 50.868 247.219 51.893 C 247.623 56.827,251.671 63.072,257.163 67.233 C 259.003 68.627,259.077 68.560,258.070 66.410 C 256.369 62.782,255.744 56.500,256.669 52.346 C 256.845 51.552,256.957 50.869,256.917 50.829 C 256.877 50.789,256.712 51.357,256.549 52.091 M22.040 51.263 C 21.973 51.330,21.923 51.556,21.929 51.766 C 21.940 52.115,21.955 52.111,22.116 51.709 C 22.295 51.261,22.258 51.045,22.040 51.263 M21.298 53.074 C 21.144 53.475,21.159 53.787,21.324 53.623 C 21.400 53.547,21.462 53.431,21.464 53.364 C 21.466 53.297,21.532 53.139,21.612 53.014 C 21.691 52.888,21.678 52.785,21.583 52.785 C 21.487 52.785,21.359 52.915,21.298 53.074 M37.829 54.450 C 37.716 54.772,37.656 55.068,37.695 55.107 C 37.734 55.147,37.858 54.914,37.971 54.592 C 38.083 54.269,38.143 53.973,38.104 53.934 C 38.065 53.895,37.941 54.127,37.829 54.450 M168.324 55.812 C 168.256 56.080,168.237 56.334,168.280 56.377 C 168.323 56.420,168.413 56.236,168.480 55.969 C 168.547 55.701,168.567 55.447,168.524 55.404 C 168.481 55.361,168.391 55.544,168.324 55.812 M326.474 66.575 C 326.474 69.790,326.499 71.079,326.529 69.441 C 326.560 67.802,326.560 65.172,326.529 63.596 C 326.499 62.020,326.474 63.361,326.474 66.575 M19.407 62.374 C 19.409 62.776,19.446 62.919,19.490 62.692 C 19.534 62.465,19.532 62.136,19.486 61.961 C 19.441 61.787,19.405 61.973,19.407 62.374 M167.173 63.196 C 167.173 63.648,167.209 63.833,167.252 63.607 C 167.296 63.381,167.296 63.011,167.252 62.785 C 167.209 62.559,167.173 62.744,167.173 63.196 M19.251 66.484 C 19.251 67.941,19.279 68.537,19.314 67.808 C 19.348 67.080,19.348 65.888,19.314 65.160 C 19.279 64.432,19.251 65.027,19.251 66.484 M35.480 66.575 C 35.482 66.977,35.519 67.120,35.563 66.893 C 35.607 66.666,35.605 66.337,35.559 66.162 C 35.514 65.988,35.478 66.174,35.480 66.575 M183.255 67.945 C 183.255 68.598,183.288 68.865,183.328 68.539 C 183.369 68.212,183.369 67.678,183.328 67.352 C 183.288 67.025,183.255 67.292,183.255 67.945 M112.960 75.160 C 112.960 79.279,112.984 80.990,113.013 78.962 C 113.043 76.934,113.043 73.565,113.014 71.473 C 112.984 69.382,112.960 71.041,112.960 75.160 M167.173 69.954 C 167.173 70.406,167.209 70.591,167.252 70.365 C 167.296 70.139,167.296 69.769,167.252 69.543 C 167.209 69.317,167.173 69.502,167.173 69.954 M19.374 70.822 C 19.383 71.344,19.420 71.420,19.528 71.144 C 19.658 70.810,19.593 70.137,19.431 70.137 C 19.392 70.137,19.367 70.445,19.374 70.822 M167.348 71.781 C 167.348 72.132,167.386 72.276,167.432 72.100 C 167.478 71.925,167.478 71.637,167.432 71.461 C 167.386 71.285,167.348 71.429,167.348 71.781 M183.256 72.603 C 183.257 73.306,183.290 73.571,183.330 73.192 C 183.369 72.813,183.369 72.238,183.328 71.914 C 183.288 71.589,183.255 71.900,183.256 72.603 M19.556 72.320 C 19.546 72.800,19.594 72.899,19.757 72.737 C 19.914 72.579,19.917 72.415,19.769 72.106 C 19.580 71.715,19.567 71.728,19.556 72.320 M167.501 73.251 C 167.513 73.843,167.526 73.856,167.714 73.464 C 167.863 73.156,167.859 72.992,167.702 72.834 C 167.539 72.672,167.492 72.771,167.501 73.251 M19.738 73.598 C 19.729 74.078,19.777 74.178,19.939 74.015 C 20.097 73.857,20.100 73.693,19.952 73.385 C 19.763 72.993,19.750 73.006,19.738 73.598 M35.486 74.064 C 35.487 74.566,35.523 74.750,35.565 74.472 C 35.607 74.195,35.606 73.784,35.562 73.559 C 35.519 73.334,35.485 73.562,35.486 74.064 M167.671 74.429 C 167.671 74.701,167.750 74.859,167.854 74.795 C 167.954 74.732,168.037 74.568,168.037 74.429 C 168.037 74.290,167.954 74.126,167.854 74.064 C 167.750 74.000,167.671 74.157,167.671 74.429 M19.909 74.795 C 19.909 75.067,19.987 75.224,20.091 75.160 C 20.192 75.098,20.274 74.933,20.274 74.795 C 20.274 74.656,20.192 74.491,20.091 74.429 C 19.987 74.365,19.909 74.522,19.909 74.795 M167.854 75.525 C 167.854 75.797,167.933 75.955,168.037 75.890 C 168.137 75.828,168.219 75.664,168.219 75.525 C 168.219 75.386,168.137 75.222,168.037 75.160 C 167.933 75.096,167.854 75.253,167.854 75.525 M183.421 75.616 C 183.421 75.968,183.459 76.112,183.505 75.936 C 183.551 75.760,183.551 75.473,183.505 75.297 C 183.459 75.121,183.421 75.265,183.421 75.616 M20.091 75.667 C 20.091 76.271,20.522 77.991,20.673 77.991 C 20.838 77.991,20.690 76.788,20.483 76.438 C 20.423 76.338,20.397 76.119,20.424 75.952 C 20.452 75.785,20.388 75.596,20.283 75.531 C 20.177 75.465,20.091 75.527,20.091 75.667 M168.037 76.540 C 168.037 76.747,168.119 76.866,168.219 76.804 C 168.320 76.742,168.402 76.572,168.402 76.428 C 168.402 76.283,168.320 76.164,168.219 76.164 C 168.119 76.164,168.037 76.334,168.037 76.540 M168.219 77.352 C 168.219 77.502,168.301 77.626,168.402 77.626 C 168.502 77.626,168.584 77.502,168.584 77.352 C 168.584 77.201,168.502 77.078,168.402 77.078 C 168.301 77.078,168.219 77.201,168.219 77.352 M168.402 77.991 C 168.402 78.465,168.824 79.817,168.971 79.817 C 169.187 79.817,169.177 79.501,168.958 79.366 C 168.862 79.306,168.826 79.145,168.879 79.008 C 168.932 78.871,168.890 78.706,168.788 78.643 C 168.685 78.579,168.644 78.415,168.696 78.277 C 168.749 78.140,168.704 77.974,168.597 77.907 C 168.490 77.841,168.402 77.878,168.402 77.991 M94.429 79.361 C 94.429 80.152,94.506 80.731,94.612 80.731 C 94.717 80.731,94.795 80.152,94.795 79.361 C 94.795 78.569,94.717 77.991,94.612 77.991 C 94.506 77.991,94.429 78.569,94.429 79.361 M20.639 78.447 C 20.639 78.598,20.721 78.721,20.822 78.721 C 20.922 78.721,21.005 78.598,21.005 78.447 C 21.005 78.297,20.922 78.174,20.822 78.174 C 20.721 78.174,20.639 78.297,20.639 78.447 M20.822 79.178 C 20.822 79.329,20.904 79.452,21.005 79.452 C 21.105 79.452,21.187 79.329,21.187 79.178 C 21.187 79.027,21.105 78.904,21.005 78.904 C 20.904 78.904,20.822 79.027,20.822 79.178 M21.007 79.772 C 21.010 79.936,21.694 82.169,21.860 82.557 C 21.925 82.708,21.991 82.872,22.006 82.922 C 22.022 82.973,22.126 83.219,22.238 83.470 C 22.349 83.721,22.960 85.118,23.594 86.573 C 25.310 90.505,27.019 92.985,30.214 96.175 C 32.534 98.491,35.498 100.822,36.124 100.822 C 36.230 100.822,36.344 100.887,36.377 100.966 C 36.411 101.046,36.890 101.344,37.443 101.629 C 37.995 101.914,38.489 102.209,38.539 102.283 C 38.981 102.940,45.195 105.054,48.706 105.742 C 53.478 106.677,54.316 106.680,52.580 105.758 C 47.038 102.815,43.535 99.184,40.330 93.059 C 39.049 90.614,38.927 90.656,40.158 93.118 C 41.652 96.108,43.235 98.361,45.552 100.798 L 46.484 101.778 45.753 101.651 C 44.816 101.490,42.053 98.742,40.649 96.575 L 40.323 96.073 35.458 96.065 L 30.594 96.057 29.847 95.380 C 29.015 94.627,26.278 91.005,25.470 89.589 C 25.184 89.087,24.898 88.635,24.835 88.584 C 24.469 88.292,22.901 84.636,22.152 82.332 C 21.419 80.074,20.996 79.128,21.007 79.772 M168.950 80.274 C 168.950 80.425,169.032 80.548,169.132 80.548 C 169.233 80.548,169.315 80.425,169.315 80.274 C 169.315 80.123,169.233 80.000,169.132 80.000 C 169.032 80.000,168.950 80.123,168.950 80.274 M169.132 80.902 C 169.132 81.788,172.408 88.956,173.745 90.998 C 176.830 95.706,181.592 100.012,185.708 101.816 C 186.135 102.003,186.484 102.217,186.484 102.291 C 186.484 103.122,195.739 105.855,200.411 106.403 C 201.732 106.558,201.730 106.442,200.398 105.770 C 195.100 103.096,190.395 98.011,187.580 91.919 C 187.244 91.192,186.935 90.630,186.893 90.671 C 186.461 91.104,190.371 97.467,192.624 99.998 C 194.208 101.777,194.218 101.793,193.596 101.678 C 192.887 101.545,190.008 98.718,188.858 97.024 L 188.219 96.082 183.257 96.078 L 178.294 96.073 177.081 94.749 C 174.413 91.838,171.436 86.753,170.131 82.877 C 169.507 81.025,169.132 80.284,169.132 80.902 M94.612 81.724 C 94.612 82.070,94.694 82.404,94.795 82.466 C 94.905 82.534,94.977 82.285,94.977 81.837 C 94.977 81.430,94.895 81.096,94.795 81.096 C 94.694 81.096,94.612 81.379,94.612 81.724 M94.795 83.108 C 94.795 83.557,95.682 87.706,95.803 87.828 C 96.067 88.092,96.040 87.558,95.719 86.192 C 95.521 85.348,95.304 84.226,95.236 83.699 C 95.118 82.778,94.795 82.346,94.795 83.108 M113.016 83.769 C 112.690 84.269,113.556 88.864,114.440 91.326 C 115.835 95.210,118.710 99.086,121.682 101.088 C 122.612 101.714,122.626 101.735,122.098 101.736 C 121.289 101.737,118.854 100.002,117.099 98.174 L 115.608 96.621 108.134 96.621 L 100.659 96.621 99.907 95.571 C 99.048 94.372,96.765 89.928,96.425 88.794 C 96.202 88.051,95.890 87.769,95.890 88.311 C 95.890 88.461,95.973 88.584,96.073 88.584 C 96.174 88.584,96.236 88.646,96.212 88.721 C 96.138 88.956,97.331 91.784,98.079 93.145 C 98.471 93.859,98.844 94.604,98.906 94.801 C 98.969 94.999,99.079 95.160,99.151 95.160 C 99.223 95.160,99.437 95.427,99.626 95.753 C 100.613 97.459,102.998 99.751,105.847 101.729 C 106.348 102.077,106.855 102.456,106.974 102.571 C 110.426 105.919,125.967 108.067,135.145 106.465 C 138.588 105.864,138.809 105.675,136.301 105.478 C 122.257 104.371,114.167 96.920,113.199 84.201 C 113.172 83.847,113.091 83.654,113.016 83.769 M186.406 89.498 C 186.473 89.749,186.604 90.078,186.697 90.228 C 186.815 90.419,186.830 90.363,186.745 90.046 C 186.677 89.795,186.546 89.466,186.453 89.315 C 186.336 89.125,186.321 89.180,186.406 89.498 M326.393 96.438 C 326.393 96.840,326.475 97.169,326.575 97.169 C 326.676 97.169,326.758 96.840,326.758 96.438 C 326.758 96.037,326.676 95.708,326.575 95.708 C 326.475 95.708,326.393 96.037,326.393 96.438 " stroke="none" fill="#764c59" fill-rule="evenodd"></path></g></svg>